# xmcd CD database file
#
# Track frame offsets:
#	150
#	14664
#	31443
#	42794
#	52778
#	68972
#	83873
#	97350
#	111204
#	134701
#	148103
#	159655
#	169731
#	180395
#
# Disc length: 2568 seconds
#
# Revision: 0
# Processed by: cddbd v1.5.2PL0 Copyright (c) Steve Scherf et al.
# Submitted via: ACXtractor (MTCDDB.DLL V2003.12.21)
#
DISCID=c70a060e
DTITLE=Clelia Adams - Heartbeat Highway
DYEAR=2007
DGENRE=Country
TTITLE0=Heartbeat Highway
TTITLE1=Talk of the Town
TTITLE2=Setting the Woods on Fire
TTITLE3=Back in Baby's Arms
TTITLE4=Half as Much
TTITLE5=Green Room
TTITLE6=Rock and Roll Waltz
TTITLE7=Yodellin' Blues
TTITLE8=Our Town
TTITLE9=Cowboy's Sweetheart
TTITLE10=Que Sera, Sera
TTITLE11=Stupid Cupid
TTITLE12=My Boy Lollipop
TTITLE13=Mountain of Love
EXTD=ID3G:   2 YEAR: 2007
EXTT0=
EXTT1=
EXTT2=
EXTT3=
EXTT4=
EXTT5=
EXTT6=
EXTT7=
EXTT8=
EXTT9=
EXTT10=
EXTT11=
EXTT12=
EXTT13=
PLAYORDER=
